<svg width="335" height="140" viewBox="0 0 335 140" fill="none" xmlns="http://www.w3.org/2000/svg">
<rect width="335" height="140" rx="40" fill="#45197D"/>
<mask id="mask0_309_128" style="mask-type:alpha" maskUnits="userSpaceOnUse" x="0" y="0" width="335" height="140">
<rect width="335" height="140" rx="40" fill="#5B259F"/>
</mask>
<g mask="url(#mask0_309_128)">
<path d="M386.032 68.5C386.032 107.053 352.222 138.5 310.266 138.5C268.31 138.5 234.5 107.053 234.5 68.5C234.5 29.9475 268.31 -1.5 310.266 -1.5C352.222 -1.5 386.032 29.9475 386.032 68.5Z" stroke="#9038FF" stroke-width="3"/>
<ellipse cx="39.9839" rx="29.1774" ry="27" fill="#6E34B8"/>
<path d="M39.528 63C39.08 63 38.68 62.864 38.328 62.592C37.976 62.304 37.8 61.952 37.8 61.536V47.664C37.8 47.248 37.936 46.904 38.208 46.632C38.496 46.344 38.848 46.2 39.264 46.2H46.176C47.008 46.2 47.784 46.424 48.504 46.872C49.24 47.304 49.832 47.912 50.28 48.696C50.728 49.464 50.952 50.352 50.952 51.36C50.952 51.968 50.824 52.56 50.568 53.136C50.328 53.712 49.992 54.232 49.56 54.696C49.144 55.16 48.672 55.52 48.144 55.776L48.168 55.224C48.616 55.464 48.984 55.752 49.272 56.088C49.576 56.408 49.808 56.76 49.968 57.144C50.144 57.512 50.248 57.912 50.28 58.344C50.344 58.744 50.384 59.096 50.4 59.4C50.432 59.704 50.48 59.96 50.544 60.168C50.624 60.376 50.768 60.536 50.976 60.648C51.328 60.856 51.544 61.16 51.624 61.56C51.72 61.944 51.632 62.288 51.36 62.592C51.184 62.8 50.96 62.936 50.688 63C50.416 63.048 50.144 63.048 49.872 63C49.6 62.936 49.376 62.856 49.2 62.76C48.928 62.6 48.656 62.368 48.384 62.064C48.112 61.744 47.888 61.32 47.712 60.792C47.552 60.264 47.472 59.584 47.472 58.752C47.472 58.48 47.424 58.232 47.328 58.008C47.232 57.768 47.096 57.568 46.92 57.408C46.744 57.232 46.52 57.104 46.248 57.024C45.976 56.928 45.656 56.88 45.288 56.88H40.44L40.8 56.328V61.536C40.8 61.952 40.688 62.304 40.464 62.592C40.24 62.864 39.928 63 39.528 63ZM40.464 54.408H46.056C46.344 54.408 46.624 54.28 46.896 54.024C47.168 53.752 47.392 53.392 47.568 52.944C47.744 52.48 47.832 51.976 47.832 51.432C47.832 50.728 47.64 50.144 47.256 49.68C46.888 49.2 46.488 48.96 46.056 48.96H40.512L40.8 48.192V54.984L40.464 54.408ZM68.5391 63C68.1391 63 67.8031 62.864 67.5311 62.592C67.2591 62.304 67.1231 61.952 67.1231 61.536V50.256L67.6271 50.376L62.9951 56.112L62.8751 55.8H71.3711C71.7551 55.8 72.0751 55.928 72.3311 56.184C72.5871 56.44 72.7151 56.76 72.7151 57.144C72.7151 57.512 72.5871 57.824 72.3311 58.08C72.0751 58.32 71.7551 58.44 71.3711 58.44H60.8831C60.5471 58.44 60.2191 58.304 59.8991 58.032C59.5951 57.76 59.4431 57.424 59.4431 57.024C59.4431 56.672 59.5631 56.352 59.8031 56.064L67.3871 46.776C67.5151 46.6 67.6831 46.464 67.8911 46.368C68.0991 46.256 68.3311 46.2 68.5871 46.2C69.0031 46.2 69.3391 46.344 69.5951 46.632C69.8671 46.904 70.0031 47.248 70.0031 47.664V61.536C70.0031 61.952 69.8591 62.304 69.5711 62.592C69.2991 62.864 68.9551 63 68.5391 63ZM80.6805 63.24C79.3045 63.24 78.1365 62.88 77.1765 62.16C76.2325 61.424 75.5125 60.408 75.0165 59.112C74.5205 57.8 74.2725 56.296 74.2725 54.6C74.2725 52.888 74.5205 51.384 75.0165 50.088C75.5125 48.792 76.2325 47.784 77.1765 47.064C78.1365 46.328 79.3045 45.96 80.6805 45.96C82.0565 45.96 83.2165 46.328 84.1605 47.064C85.1205 47.784 85.8485 48.792 86.3445 50.088C86.8405 51.384 87.0885 52.888 87.0885 54.6C87.0885 56.296 86.8405 57.8 86.3445 59.112C85.8485 60.408 85.1205 61.424 84.1605 62.16C83.2165 62.88 82.0565 63.24 80.6805 63.24ZM80.6805 60.36C81.3525 60.36 81.9285 60.152 82.4085 59.736C82.9045 59.304 83.2885 58.664 83.5605 57.816C83.8325 56.952 83.9685 55.88 83.9685 54.6C83.9685 53.304 83.8325 52.232 83.5605 51.384C83.2885 50.536 82.9045 49.904 82.4085 49.488C81.9285 49.056 81.3525 48.84 80.6805 48.84C80.0245 48.84 79.4485 49.056 78.9525 49.488C78.4565 49.904 78.0725 50.536 77.8005 51.384C77.5285 52.232 77.3925 53.304 77.3925 54.6C77.3925 55.88 77.5285 56.952 77.8005 57.816C78.0725 58.664 78.4565 59.304 78.9525 59.736C79.4485 60.152 80.0245 60.36 80.6805 60.36ZM95.4227 63.24C94.0467 63.24 92.8787 62.88 91.9187 62.16C90.9747 61.424 90.2547 60.408 89.7587 59.112C89.2627 57.8 89.0147 56.296 89.0147 54.6C89.0147 52.888 89.2627 51.384 89.7587 50.088C90.2547 48.792 90.9747 47.784 91.9187 47.064C92.8787 46.328 94.0467 45.96 95.4227 45.96C96.7987 45.96 97.9587 46.328 98.9027 47.064C99.8627 47.784 100.591 48.792 101.087 50.088C101.583 51.384 101.831 52.888 101.831 54.6C101.831 56.296 101.583 57.8 101.087 59.112C100.591 60.408 99.8627 61.424 98.9027 62.16C97.9587 62.88 96.7987 63.24 95.4227 63.24ZM95.4227 60.36C96.0947 60.36 96.6707 60.152 97.1507 59.736C97.6467 59.304 98.0307 58.664 98.3027 57.816C98.5747 56.952 98.7107 55.88 98.7107 54.6C98.7107 53.304 98.5747 52.232 98.3027 51.384C98.0307 50.536 97.6467 49.904 97.1507 49.488C96.6707 49.056 96.0947 48.84 95.4227 48.84C94.7667 48.84 94.1907 49.056 93.6947 49.488C93.1987 49.904 92.8147 50.536 92.5427 51.384C92.2707 52.232 92.1347 53.304 92.1347 54.6C92.1347 55.88 92.2707 56.952 92.5427 57.816C92.8147 58.664 93.1987 59.304 93.6947 59.736C94.1907 60.152 94.7667 60.36 95.4227 60.36ZM105.629 62.976C105.165 62.976 104.805 62.856 104.549 62.616C104.309 62.36 104.189 62 104.189 61.536V61.128C104.189 60.664 104.309 60.312 104.549 60.072C104.805 59.816 105.165 59.688 105.629 59.688H105.941C106.405 59.688 106.757 59.816 106.997 60.072C107.253 60.312 107.381 60.664 107.381 61.128V61.536C107.381 62 107.253 62.36 106.997 62.616C106.757 62.856 106.405 62.976 105.941 62.976H105.629ZM119.765 60.36C120.149 60.36 120.469 60.488 120.725 60.744C120.981 61 121.109 61.32 121.109 61.704C121.109 62.072 120.981 62.384 120.725 62.64C120.469 62.88 120.149 63 119.765 63H111.605C111.189 63 110.861 62.872 110.621 62.616C110.381 62.36 110.261 62.032 110.261 61.632C110.261 61.232 110.405 60.88 110.693 60.576L115.925 54.984C116.517 54.344 116.981 53.688 117.317 53.016C117.669 52.344 117.845 51.76 117.845 51.264C117.845 50.464 117.613 49.824 117.149 49.344C116.685 48.848 116.069 48.6 115.301 48.6C114.997 48.6 114.685 48.672 114.365 48.816C114.045 48.96 113.733 49.16 113.429 49.416C113.141 49.672 112.869 49.968 112.613 50.304C112.421 50.56 112.229 50.72 112.037 50.784C111.845 50.848 111.669 50.88 111.509 50.88C111.157 50.88 110.829 50.752 110.525 50.496C110.237 50.224 110.093 49.912 110.093 49.56C110.093 49.288 110.181 49.024 110.357 48.768C110.549 48.512 110.781 48.248 111.053 47.976C111.453 47.576 111.901 47.224 112.397 46.92C112.893 46.616 113.405 46.384 113.933 46.224C114.461 46.048 114.973 45.96 115.469 45.96C116.541 45.96 117.469 46.176 118.253 46.608C119.053 47.024 119.669 47.624 120.101 48.408C120.533 49.176 120.749 50.088 120.749 51.144C120.749 52.024 120.485 53.008 119.957 54.096C119.445 55.168 118.749 56.176 117.869 57.12L114.629 60.576L114.365 60.36H119.765ZM125.126 59.616C125.27 59.616 125.422 59.64 125.582 59.688C125.758 59.736 125.95 59.832 126.158 59.976C126.43 60.184 126.75 60.368 127.118 60.528C127.502 60.688 127.942 60.768 128.438 60.768C128.934 60.768 129.398 60.648 129.83 60.408C130.278 60.152 130.646 59.8 130.934 59.352C131.222 58.888 131.366 58.336 131.366 57.696C131.366 57.088 131.238 56.584 130.982 56.184C130.742 55.784 130.414 55.48 129.998 55.272C129.598 55.064 129.166 54.96 128.702 54.96C128.35 54.96 128.054 54.992 127.814 55.056C127.59 55.12 127.366 55.192 127.142 55.272C126.934 55.336 126.686 55.368 126.398 55.368C126.03 55.368 125.742 55.24 125.534 54.984C125.342 54.728 125.246 54.424 125.246 54.072C125.246 53.848 125.286 53.648 125.366 53.472C125.462 53.296 125.598 53.104 125.774 52.896L129.998 48.408L130.646 48.96H124.742C124.358 48.96 124.038 48.832 123.782 48.576C123.526 48.32 123.398 48 123.398 47.616C123.398 47.248 123.526 46.944 123.782 46.704C124.038 46.448 124.358 46.32 124.742 46.32H132.086C132.582 46.32 132.95 46.456 133.19 46.728C133.446 47 133.574 47.344 133.574 47.76C133.574 47.968 133.518 48.176 133.406 48.384C133.294 48.576 133.158 48.752 132.998 48.912L128.75 53.472L128.102 52.656C128.278 52.576 128.518 52.504 128.822 52.44C129.142 52.376 129.406 52.344 129.614 52.344C130.558 52.344 131.374 52.592 132.062 53.088C132.766 53.568 133.302 54.2 133.67 54.984C134.054 55.752 134.246 56.584 134.246 57.48C134.246 58.664 133.982 59.688 133.454 60.552C132.926 61.416 132.182 62.08 131.222 62.544C130.262 63.008 129.142 63.24 127.862 63.24C127.27 63.24 126.686 63.168 126.11 63.024C125.534 62.88 125.038 62.688 124.622 62.448C124.27 62.256 124.03 62.048 123.902 61.824C123.79 61.584 123.734 61.36 123.734 61.152C123.734 60.784 123.862 60.44 124.118 60.12C124.39 59.784 124.726 59.616 125.126 59.616Z" fill="white"/>
<path d="M41.152 25.288C41.7493 25.3947 42.256 25.7093 42.672 26.232C43.088 26.7547 43.296 27.3467 43.296 28.008C43.296 28.5733 43.1467 29.0853 42.848 29.544C42.56 29.992 42.1387 30.3493 41.584 30.616C41.0293 30.872 40.384 31 39.648 31H35.2V19.88H39.44C40.1973 19.88 40.848 20.008 41.392 20.264C41.936 20.52 42.3467 20.8667 42.624 21.304C42.9013 21.7307 43.04 22.2107 43.04 22.744C43.04 23.384 42.8693 23.9173 42.528 24.344C42.1867 24.7707 41.728 25.0853 41.152 25.288ZM37.024 24.552H39.28C39.8773 24.552 40.3413 24.4187 40.672 24.152C41.0133 23.8747 41.184 23.48 41.184 22.968C41.184 22.4667 41.0133 22.0773 40.672 21.8C40.3413 21.512 39.8773 21.368 39.28 21.368H37.024V24.552ZM39.488 29.512C40.1067 29.512 40.592 29.3627 40.944 29.064C41.296 28.7653 41.472 28.3493 41.472 27.816C41.472 27.272 41.2853 26.84 40.912 26.52C40.5387 26.2 40.0427 26.04 39.424 26.04H37.024V29.512H39.488ZM44.6701 26.552C44.6701 25.6667 44.8515 24.8827 45.2141 24.2C45.5875 23.5173 46.0888 22.9893 46.7181 22.616C47.3581 22.232 48.0621 22.04 48.8301 22.04C49.5235 22.04 50.1261 22.1787 50.6381 22.456C51.1608 22.7227 51.5768 23.0587 51.8861 23.464V22.184H53.7261V31H51.8861V29.688C51.5768 30.104 51.1555 30.4507 50.6221 30.728C50.0888 31.0053 49.4808 31.144 48.7981 31.144C48.0408 31.144 47.3475 30.952 46.7181 30.568C46.0888 30.1733 45.5875 29.6293 45.2141 28.936C44.8515 28.232 44.6701 27.4373 44.6701 26.552ZM51.8861 26.584C51.8861 25.976 51.7581 25.448 51.5021 25C51.2568 24.552 50.9315 24.2107 50.5261 23.976C50.1208 23.7413 49.6835 23.624 49.2141 23.624C48.7448 23.624 48.3075 23.7413 47.9021 23.976C47.4968 24.2 47.1661 24.536 46.9101 24.984C46.6648 25.4213 46.5421 25.944 46.5421 26.552C46.5421 27.16 46.6648 27.6933 46.9101 28.152C47.1661 28.6107 47.4968 28.9627 47.9021 29.208C48.3181 29.4427 48.7555 29.56 49.2141 29.56C49.6835 29.56 50.1208 29.4427 50.5261 29.208C50.9315 28.9733 51.2568 28.632 51.5021 28.184C51.7581 27.7253 51.8861 27.192 51.8861 26.584ZM57.9459 19.16V31H56.1219V19.16H57.9459ZM59.7326 26.552C59.7326 25.6667 59.914 24.8827 60.2766 24.2C60.65 23.5173 61.1513 22.9893 61.7806 22.616C62.4206 22.232 63.1246 22.04 63.8926 22.04C64.586 22.04 65.1886 22.1787 65.7006 22.456C66.2233 22.7227 66.6393 23.0587 66.9486 23.464V22.184H68.7886V31H66.9486V29.688C66.6393 30.104 66.218 30.4507 65.6846 30.728C65.1513 31.0053 64.5433 31.144 63.8606 31.144C63.1033 31.144 62.41 30.952 61.7806 30.568C61.1513 30.1733 60.65 29.6293 60.2766 28.936C59.914 28.232 59.7326 27.4373 59.7326 26.552ZM66.9486 26.584C66.9486 25.976 66.8206 25.448 66.5646 25C66.3193 24.552 65.994 24.2107 65.5886 23.976C65.1833 23.7413 64.746 23.624 64.2766 23.624C63.8073 23.624 63.37 23.7413 62.9646 23.976C62.5593 24.2 62.2286 24.536 61.9726 24.984C61.7273 25.4213 61.6046 25.944 61.6046 26.552C61.6046 27.16 61.7273 27.6933 61.9726 28.152C62.2286 28.6107 62.5593 28.9627 62.9646 29.208C63.3806 29.4427 63.818 29.56 64.2766 29.56C64.746 29.56 65.1833 29.4427 65.5886 29.208C65.994 28.9733 66.3193 28.632 66.5646 28.184C66.8206 27.7253 66.9486 27.192 66.9486 26.584ZM75.6324 22.04C76.3257 22.04 76.9444 22.184 77.4884 22.472C78.043 22.76 78.475 23.1867 78.7844 23.752C79.0937 24.3173 79.2484 25 79.2484 25.8V31H77.4404V26.072C77.4404 25.2827 77.243 24.68 76.8484 24.264C76.4537 23.8373 75.915 23.624 75.2324 23.624C74.5497 23.624 74.0057 23.8373 73.6004 24.264C73.2057 24.68 73.0084 25.2827 73.0084 26.072V31H71.1844V22.184H73.0084V23.192C73.307 22.8293 73.6857 22.5467 74.1444 22.344C74.6137 22.1413 75.1097 22.04 75.6324 22.04ZM80.967 26.584C80.967 25.6773 81.1483 24.8827 81.511 24.2C81.8843 23.5067 82.3963 22.9733 83.047 22.6C83.6977 22.2267 84.4443 22.04 85.287 22.04C86.3537 22.04 87.2337 22.296 87.927 22.808C88.631 23.3093 89.1057 24.0293 89.351 24.968H87.383C87.223 24.5307 86.967 24.1893 86.615 23.944C86.263 23.6987 85.8203 23.576 85.287 23.576C84.5403 23.576 83.943 23.8427 83.495 24.376C83.0577 24.8987 82.839 25.6347 82.839 26.584C82.839 27.5333 83.0577 28.2747 83.495 28.808C83.943 29.3413 84.5403 29.608 85.287 29.608C86.343 29.608 87.0417 29.144 87.383 28.216H89.351C89.095 29.112 88.615 29.8267 87.911 30.36C87.207 30.8827 86.3323 31.144 85.287 31.144C84.4443 31.144 83.6977 30.9573 83.047 30.584C82.3963 30.2 81.8843 29.6667 81.511 28.984C81.1483 28.2907 80.967 27.4907 80.967 26.584ZM99.2488 26.376C99.2488 26.7067 99.2274 27.0053 99.1848 27.272H92.4488C92.5021 27.976 92.7634 28.5413 93.2328 28.968C93.7021 29.3947 94.2781 29.608 94.9608 29.608C95.9421 29.608 96.6354 29.1973 97.0408 28.376H99.0087C98.7421 29.1867 98.2568 29.8533 97.5528 30.376C96.8594 30.888 95.9954 31.144 94.9608 31.144C94.1181 31.144 93.3608 30.9573 92.6888 30.584C92.0274 30.2 91.5048 29.6667 91.1208 28.984C90.7474 28.2907 90.5608 27.4907 90.5608 26.584C90.5608 25.6773 90.7421 24.8827 91.1048 24.2C91.4781 23.5067 91.9954 22.9733 92.6568 22.6C93.3288 22.2267 94.0968 22.04 94.9608 22.04C95.7928 22.04 96.5341 22.2213 97.1848 22.584C97.8354 22.9467 98.3421 23.4587 98.7048 24.12C99.0674 24.7707 99.2488 25.5227 99.2488 26.376ZM97.3448 25.8C97.3341 25.128 97.0941 24.5893 96.6248 24.184C96.1554 23.7787 95.5741 23.576 94.8808 23.576C94.2514 23.576 93.7128 23.7787 93.2648 24.184C92.8168 24.5787 92.5501 25.1173 92.4648 25.8H97.3448Z" fill="white"/>
<path d="M41.4102 117.528H45.1702V119H39.5862V107.88H41.4102V117.528ZM47.7036 109.016C47.373 109.016 47.0956 108.904 46.8716 108.68C46.6476 108.456 46.5356 108.179 46.5356 107.848C46.5356 107.517 46.6476 107.24 46.8716 107.016C47.0956 106.792 47.373 106.68 47.7036 106.68C48.0236 106.68 48.2956 106.792 48.5196 107.016C48.7436 107.24 48.8556 107.517 48.8556 107.848C48.8556 108.179 48.7436 108.456 48.5196 108.68C48.2956 108.904 48.0236 109.016 47.7036 109.016ZM48.5996 110.184V119H46.7756V110.184H48.5996ZM55.5224 110.04C56.2157 110.04 56.8344 110.184 57.3784 110.472C57.933 110.76 58.365 111.187 58.6744 111.752C58.9837 112.317 59.1384 113 59.1384 113.8V119H57.3304V114.072C57.3304 113.283 57.133 112.68 56.7384 112.264C56.3437 111.837 55.805 111.624 55.1224 111.624C54.4397 111.624 53.8957 111.837 53.4904 112.264C53.0957 112.68 52.8984 113.283 52.8984 114.072V119H51.0744V110.184H52.8984V111.192C53.197 110.829 53.5757 110.547 54.0344 110.344C54.5037 110.141 54.9997 110.04 55.5224 110.04ZM65.033 114.6L69.097 119H66.633L63.369 115.208V119H61.545V107.16H63.369V114.04L66.569 110.184H69.097L65.033 114.6ZM78.5644 114.376C78.5644 114.707 78.543 115.005 78.5004 115.272H71.7644C71.8177 115.976 72.079 116.541 72.5484 116.968C73.0177 117.395 73.5937 117.608 74.2764 117.608C75.2577 117.608 75.951 117.197 76.3564 116.376H78.3244C78.0577 117.187 77.5724 117.853 76.8684 118.376C76.175 118.888 75.311 119.144 74.2764 119.144C73.4337 119.144 72.6764 118.957 72.0044 118.584C71.343 118.2 70.8204 117.667 70.4364 116.984C70.063 116.291 69.8764 115.491 69.8764 114.584C69.8764 113.677 70.0577 112.883 70.4204 112.2C70.7937 111.507 71.311 110.973 71.9724 110.6C72.6444 110.227 73.4124 110.04 74.2764 110.04C75.1084 110.04 75.8497 110.221 76.5004 110.584C77.151 110.947 77.6577 111.459 78.0204 112.12C78.383 112.771 78.5644 113.523 78.5644 114.376ZM76.6604 113.8C76.6497 113.128 76.4097 112.589 75.9404 112.184C75.471 111.779 74.8897 111.576 74.1964 111.576C73.567 111.576 73.0284 111.779 72.5804 112.184C72.1324 112.579 71.8657 113.117 71.7804 113.8H76.6604ZM79.8314 114.552C79.8314 113.667 80.0127 112.883 80.3754 112.2C80.7487 111.517 81.25 110.989 81.8794 110.616C82.5194 110.232 83.2287 110.04 84.0074 110.04C84.5834 110.04 85.1487 110.168 85.7034 110.424C86.2687 110.669 86.7167 111 87.0474 111.416V107.16H88.8874V119H87.0474V117.672C86.7487 118.099 86.3327 118.451 85.7994 118.728C85.2767 119.005 84.674 119.144 83.9914 119.144C83.2234 119.144 82.5194 118.952 81.8794 118.568C81.25 118.173 80.7487 117.629 80.3754 116.936C80.0127 116.232 79.8314 115.437 79.8314 114.552ZM87.0474 114.584C87.0474 113.976 86.9194 113.448 86.6634 113C86.418 112.552 86.0927 112.211 85.6874 111.976C85.282 111.741 84.8447 111.624 84.3754 111.624C83.906 111.624 83.4687 111.741 83.0634 111.976C82.658 112.2 82.3274 112.536 82.0714 112.984C81.826 113.421 81.7034 113.944 81.7034 114.552C81.7034 115.16 81.826 115.693 82.0714 116.152C82.3274 116.611 82.658 116.963 83.0634 117.208C83.4794 117.443 83.9167 117.56 84.3754 117.56C84.8447 117.56 85.282 117.443 85.6874 117.208C86.0927 116.973 86.418 116.632 86.6634 116.184C86.9194 115.725 87.0474 115.192 87.0474 114.584ZM97.7274 111.672V116.552C97.7274 116.883 97.802 117.123 97.9514 117.272C98.1114 117.411 98.378 117.48 98.7514 117.48H99.8714V119H98.4314C97.61 119 96.9807 118.808 96.5434 118.424C96.106 118.04 95.8874 117.416 95.8874 116.552V111.672H94.8474V110.184H95.8874V107.992H97.7274V110.184H99.8714V111.672H97.7274ZM105.456 119.144C104.624 119.144 103.872 118.957 103.2 118.584C102.528 118.2 102 117.667 101.616 116.984C101.232 116.291 101.04 115.491 101.04 114.584C101.04 113.688 101.238 112.893 101.632 112.2C102.027 111.507 102.566 110.973 103.248 110.6C103.931 110.227 104.694 110.04 105.536 110.04C106.379 110.04 107.142 110.227 107.824 110.6C108.507 110.973 109.046 111.507 109.44 112.2C109.835 112.893 110.032 113.688 110.032 114.584C110.032 115.48 109.83 116.275 109.424 116.968C109.019 117.661 108.464 118.2 107.76 118.584C107.067 118.957 106.299 119.144 105.456 119.144ZM105.456 117.56C105.926 117.56 106.363 117.448 106.768 117.224C107.184 117 107.52 116.664 107.776 116.216C108.032 115.768 108.16 115.224 108.16 114.584C108.16 113.944 108.038 113.405 107.792 112.968C107.547 112.52 107.222 112.184 106.816 111.96C106.411 111.736 105.974 111.624 105.504 111.624C105.035 111.624 104.598 111.736 104.192 111.96C103.798 112.184 103.483 112.52 103.248 112.968C103.014 113.405 102.896 113.944 102.896 114.584C102.896 115.533 103.136 116.269 103.616 116.792C104.107 117.304 104.72 117.56 105.456 117.56ZM115.544 114.584C115.544 113.677 115.725 112.883 116.088 112.2C116.461 111.507 116.973 110.973 117.624 110.6C118.275 110.227 119.021 110.04 119.864 110.04C120.931 110.04 121.811 110.296 122.504 110.808C123.208 111.309 123.683 112.029 123.928 112.968H121.96C121.8 112.531 121.544 112.189 121.192 111.944C120.84 111.699 120.397 111.576 119.864 111.576C119.117 111.576 118.52 111.843 118.072 112.376C117.635 112.899 117.416 113.635 117.416 114.584C117.416 115.533 117.635 116.275 118.072 116.808C118.52 117.341 119.117 117.608 119.864 117.608C120.92 117.608 121.619 117.144 121.96 116.216H123.928C123.672 117.112 123.192 117.827 122.488 118.36C121.784 118.883 120.909 119.144 119.864 119.144C119.021 119.144 118.275 118.957 117.624 118.584C116.973 118.2 116.461 117.667 116.088 116.984C115.725 116.291 115.544 115.491 115.544 114.584ZM125.218 114.552C125.218 113.667 125.399 112.883 125.762 112.2C126.135 111.517 126.636 110.989 127.266 110.616C127.906 110.232 128.61 110.04 129.378 110.04C130.071 110.04 130.674 110.179 131.186 110.456C131.708 110.723 132.124 111.059 132.434 111.464V110.184H134.274V119H132.434V117.688C132.124 118.104 131.703 118.451 131.17 118.728C130.636 119.005 130.028 119.144 129.346 119.144C128.588 119.144 127.895 118.952 127.266 118.568C126.636 118.173 126.135 117.629 125.762 116.936C125.399 116.232 125.218 115.437 125.218 114.552ZM132.434 114.584C132.434 113.976 132.306 113.448 132.05 113C131.804 112.552 131.479 112.211 131.074 111.976C130.668 111.741 130.231 111.624 129.762 111.624C129.292 111.624 128.855 111.741 128.45 111.976C128.044 112.2 127.714 112.536 127.458 112.984C127.212 113.421 127.09 113.944 127.09 114.552C127.09 115.16 127.212 115.693 127.458 116.152C127.714 116.611 128.044 116.963 128.45 117.208C128.866 117.443 129.303 117.56 129.762 117.56C130.231 117.56 130.668 117.443 131.074 117.208C131.479 116.973 131.804 116.632 132.05 116.184C132.306 115.725 132.434 115.192 132.434 114.584ZM138.573 111.464C138.84 111.016 139.192 110.669 139.629 110.424C140.077 110.168 140.605 110.04 141.213 110.04V111.928H140.749C140.035 111.928 139.491 112.109 139.117 112.472C138.755 112.835 138.573 113.464 138.573 114.36V119H136.749V110.184H138.573V111.464ZM142.362 114.552C142.362 113.667 142.543 112.883 142.906 112.2C143.279 111.517 143.781 110.989 144.41 110.616C145.05 110.232 145.759 110.04 146.538 110.04C147.114 110.04 147.679 110.168 148.234 110.424C148.799 110.669 149.247 111 149.578 111.416V107.16H151.418V119H149.578V117.672C149.279 118.099 148.863 118.451 148.33 118.728C147.807 119.005 147.205 119.144 146.522 119.144C145.754 119.144 145.05 118.952 144.41 118.568C143.781 118.173 143.279 117.629 142.906 116.936C142.543 116.232 142.362 115.437 142.362 114.552ZM149.578 114.584C149.578 113.976 149.45 113.448 149.194 113C148.949 112.552 148.623 112.211 148.218 111.976C147.813 111.741 147.375 111.624 146.906 111.624C146.437 111.624 145.999 111.741 145.594 111.976C145.189 112.2 144.858 112.536 144.602 112.984C144.357 113.421 144.234 113.944 144.234 114.552C144.234 115.16 144.357 115.693 144.602 116.152C144.858 116.611 145.189 116.963 145.594 117.208C146.01 117.443 146.447 117.56 146.906 117.56C147.375 117.56 147.813 117.443 148.218 117.208C148.623 116.973 148.949 116.632 149.194 116.184C149.45 115.725 149.578 115.192 149.578 114.584Z" fill="#BDBDBD"/>
<path d="M297.365 54L309.818 65.1114L297 75.7999" stroke="#D71CDB" stroke-width="2" stroke-linecap="round" stroke-linejoin="round"/>
</g>
</svg>
